<svg xmlns="http://www.w3.org/2000/svg" viewBox="0 0 626.25 294.09"><defs><style>.cls-1{fill:#575756;}.cls-2{fill:#70d44b;}</style></defs><g id="Camada_2" data-name="Camada 2"><g id="Layer_1" data-name="Layer 1"><path class="cls-1" d="M352,.22c16.71,0,33.44.51,50.13-.11,33.62-1.25,62.65,9.5,88.18,31.18C506,44.58,522.44,57,543.62,60c9.1,1.33,18.34,1.62,27.5,2.56,27.79,2.86,50.17,25.22,53.69,52.77,1.88,14.68,1.59,29.35,1,44-1.36,31.41-23.76,60.09-65.52,60.95l-3.46.08c-16.78.19-19.75.41-19-20.1a53.4,53.4,0,0,0-.08-5.71c.21-9.28,5-9.77,12.41-9.84.57,0,2-.1,2.6-.07,29.39,1.59,37.56-8.92,38-38.65.1-6.31-.71-12.64-1-19-1-20.58-9-28.43-29.18-29.29-23.36-1-45.84-5.47-65.57-18.84-9.52-6.46-18.61-13.59-27.61-20.78-19.43-15.51-41.12-23.26-66.3-22.67q-48.82,1.14-97.67,0c-23.92-.54-45.36,6.35-65.87,17.67-25,13.77-48.39,30.18-74,42.94a265.55,265.55,0,0,1-89.86,26.33c-9,1-17.48,3.56-25,8.8-11.24,7.85-15.46,20.11-11.51,33.44C40.81,177,50.47,183.87,64.48,184c8.07.1,16.14.16,24.21,0,5.37-.08,8,2.38,8.15,7.7.26,7.49.5,15,1,22.44.29,4.2-1.79,5.87-5.51,6-18.16.56-36.51,1.46-53.78-5.32-24-9.44-35.13-29.21-38.06-53.46-2.85-23.6,6.85-42.72,25.37-57.32A77.36,77.36,0,0,1,67.1,87.59c43.41-4,81.52-21.32,117.77-44.12,20.71-13,41.26-26.37,64.49-34.85A140.09,140.09,0,0,1,298.42,0C316.28.07,334.14,0,352,0Z"/><path class="cls-2" d="M263.45,214.22c6.79-11.55,11.25-19.71,14.71-25.94a1.67,1.67,0,0,0-1.48-2.47c-15.67.19-27,0-43.24.09-6.3,0-9.74-1.75-12.18-8.05-10.83-28-35.3-43.16-65.32-40.08-14.8,1.51-27.68,7.66-37.85,22.11,13.67,0,37.15-.15,37.15-.15,8.49-.44,14.08,1.86,17.75,10.07,3.27,7.31,7.91,14,12.28,20.81,2.86,4.43,3.24,8.49.4,13.12C180.6,212,175.56,220.32,171.2,229c-2.53,5-6.16,7.22-11.65,7.11-10.36-.22-20.74-.13-31.11,0l-10.34.14a51.82,51.82,0,0,0,7.2,8.31c27.12,25.31,73,16,91.9-17.88,2.8-5,5.08-7,11.93-7.91L260.67,216A3.58,3.58,0,0,0,263.45,214.22Z"/><path class="cls-2" d="M399.24,186.16c9.28.06,13.71-3.31,17.1-11.87,15.27-38.7,69.68-49.43,97.69-19.64,1,1,1.72,2.19,4.19,5.4-10.84,0-28.8-.2-28.8-.2-15.26-.82-24.18,3-31.14,17.38-12.77,26.36-13.37,15.4.42,42.29,5.39,10.52,13.77,17.27,29.8,16.94,0,0,18.27-.23,29-.23-13.57,20.06-42.66,27.64-66.64,18.53-14.21-5.39-25.61-14.4-32.47-28.23-2.65-5.33-6.23-7.6-12.19-7.59l-31.4-2.41a1,1,0,0,1-.78-1.63l18.14-26.52a4.34,4.34,0,0,1,3.17-1.86Z"/><path class="cls-2" d="M303.92,217c-6,0-12.11.32-18.12-.07-10.17-.67-12.61-5-6.81-12.87,21.55-29.16,43.39-58.1,65.19-87.06,2.28-3,5.09-6.34,9.39-3.43,3.56,2.41,2.32,6,1,9.2-7.2,17-14.09,34.23-21.79,51-4.08,8.92-1.56,11.37,7.49,11,9.8-.43,19.64-.37,29.45,0,10.33.41,12.76,4.44,7.29,12.63-20.35,30.46-41,60.73-61.62,91-2.05,3-4.38,7.14-8.93,5.09-5.37-2.44-3.05-7-1.59-10.77,7-18.33,13.78-36.78,21.44-54.84,3.83-9,1.35-11.55-7.63-10.87-4.88.38-9.81.07-14.72.07Z"/><polygon class="cls-1" points="157.91 173.78 129.53 173.78 115.34 198.36 129.53 222.93 157.91 222.93 172.1 198.36 157.91 173.78"/><polygon class="cls-1" points="506.66 173.78 478.28 173.78 464.09 198.36 478.28 222.93 506.66 222.93 520.85 198.36 506.66 173.78"/></g></g></svg>